C:\GBW_MyPrograms\PredSim\Subjects\Ines_test\Volwassenen\Volwassenen_v1.mot
version=1
nRows=12
nColumns=31
inDegrees=yes
endheader
                time	         pelvis_tilt	           pelvis_tx	           pelvis_ty	       hip_flexion_r	        knee_angle_r	       ankle_angle_r	       hip_flexion_l	        knee_angle_l	       ankle_angle_l	    lumbar_extension	          arm_flex_r	          arm_flex_l	hamstrings_r/activation	bifemsh_r/activation	glut_max_r/activation	iliopsoas_r/activation	rect_fem_r/activation	  vasti_r/activation	gastroc_r/activation	 soleus_r/activation	tib_ant_r/activation	hamstrings_l/activation	bifemsh_l/activation	glut_max_l/activation	iliopsoas_l/activation	rect_fem_l/activation	  vasti_l/activation	gastroc_l/activation	 soleus_l/activation	tib_ant_l/activation	
          1.99919064	         -1.10569282	          2.37133069	          1.00376919	         18.98173884	        -29.27492720	          5.80341675	         -6.03081911	        -28.96905879	        -19.55671399	         -2.44922878	         -6.19049230	         -6.19045823	          0.51787411	          0.53453351	          0.57882471	          0.39519277	          0.52584195	          0.58991011	          0.14408334	          0.27245062	          0.66610156	          0.43065901	          0.72948971	          0.23383241	          0.92880744	          0.61726572	          0.19029871	          0.57913467	          0.50407603	          0.65653539	
          2.01918254	         -1.03909039	          2.39899655	          0.99586723	         17.12254608	        -29.35419502	          8.27372354	         -4.56992929	        -33.83449164	        -19.35931221	         -2.09548288	         -6.58041384	         -6.58037943	          0.50806929	          0.50227845	          0.76712227	          0.31336212	          0.59339128	          0.74702020	          0.42589213	          0.60614859	          0.50036135	          0.42530690	          0.68163703	          0.19124237	          0.83888450	          0.64788953	          0.17170783	          0.56629228	          0.42394553	          0.72846760	
          2.03917445	         -1.00578898	          2.42496059	          0.99022428	         15.29974647	        -29.15507511	          9.21086658	         -2.33516817	        -38.65468692	        -18.56291327	         -1.88211823	         -6.71844139	         -6.71840930	          0.39955910	          0.43102945	          0.71598668	          0.26705715	          0.72896959	          0.88441644	          0.55496133	          0.73628008	          0.37574017	          0.36174098	          0.71927737	          0.14675144	          0.85008312	          0.76207770	          0.15357528	          0.56686999	          0.38637862	          0.74510118	
          2.05916636	         -1.03687079	          2.44883155	          0.98959134	         13.74241448	        -28.79826215	          8.41344966	          0.72866250	        -43.01009502	        -17.71961339	         -1.80624039	         -6.55364424	         -6.55361253	          0.33902557	          0.38906885	          0.79800415	          0.25582964	          0.76040572	          0.94421644	          0.69731455	          0.85478445	          0.28220602	          0.32705488	          0.73896340	          0.12734562	          0.80364565	          0.80859159	          0.12484849	          0.56629552	          0.36051398	          0.74521830	
          2.07915826	         -1.09628646	          2.47149732	          0.99410554	         11.25503321	        -26.38512883	          6.33160888	          4.52082085	        -47.01495991	        -16.88309754	         -1.80774661	         -6.20934439	         -6.20931553	          0.33940393	          0.39249913	          0.70088428	          0.25089580	          0.71986466	          0.77662743	          0.81178413	          0.91689245	          0.21182145	          0.31808791	          0.71926744	          0.12150341	          0.73233355	          0.80810280	          0.11136438	          0.56184210	          0.33421995	          0.74646343	
          2.09915017	         -1.12367137	          2.49294574	          1.00284079	          8.26050200	        -22.73406305	          2.71008074	          8.89775095	        -50.85335938	        -16.09468049	         -1.96423378	         -5.67942881	         -5.67940110	          0.35737776	          0.47980505	          0.58162433	          0.42841550	          0.65836489	          0.60080261	          0.87523203	          0.92171919	          0.15897610	          0.34119284	          0.68275688	          0.14782870	          0.66266947	          0.75727965	          0.13509284	          0.55806266	          0.32011506	          0.74486829	
          2.11914207	         -1.06403876	          2.51305648	          1.01464088	          5.82168685	        -19.76984660	         -2.67245754	         13.42908177	        -54.13071076	        -15.44928654	         -2.36162258	         -4.94363323	         -4.94360839	          0.31440887	          0.63222797	          0.46900940	          0.70228719	          0.62062021	          0.49458995	          0.87439989	          0.88697048	          0.11930029	          0.39547195	          0.66280862	          0.19695752	          0.62448124	          0.68690084	          0.27596393	          0.55537976	          0.31564120	          0.74137647	
          2.13913398	         -0.89084798	          2.53229696	          1.02851348	          4.61984320	        -18.74233745	         -9.56223970	         17.29861306	        -55.65529240	        -14.95383239	         -2.98514448	         -4.06916714	         -4.06914385	          0.25032390	          0.70477016	          0.36711565	          0.85652246	          0.68457793	          0.41697128	          0.72954597	          0.68299182	          0.08959790	          0.41082462	          0.65432040	          0.29821603	          0.61734472	          0.63586023	          0.44707288	          0.55269359	          0.31606757	          0.73969072	
          2.15912589	         -0.64928403	          2.55161103	          1.04278518	          4.42244742	        -19.34257602	        -16.65229707	         19.84702667	        -54.61292695	        -14.60700885	         -3.67995453	         -3.20270383	         -3.20268294	          0.20312572	          0.63895952	          0.30464809	          0.86510889	          0.80952715	          0.49478072	          0.55125924	          0.51306291	          0.60780956	          0.41881260	          0.63242039	          0.43639870	          0.59238062	          0.60285762	          0.48962437	          0.55070346	          0.32498339	          0.73397058	
          2.17911779	         -0.45767907	          2.57221542	          1.05442678	          3.73849897	        -18.18011541	        -18.24383528	         21.07084369	        -51.57615138	        -14.48624050	         -4.16885867	         -2.53853733	         -2.53851802	          0.16951232	          0.53181438	          0.37471205	          0.74723644	          0.83425820	          0.66067550	          0.43384075	          0.39407014	          0.80896709	          0.33678645	          0.58209755	          0.54352979	          0.54548460	          0.58843629	          0.43449735	          0.54533934	          0.32961307	          0.73241211	
          2.19910970	         -0.38145847	          2.59416676	          1.06238105	          2.14262263	        -13.54382395	        -17.71934083	         21.29107943	        -47.25309552	        -14.54031845	         -4.36839337	         -2.09545298	         -2.09543514	          0.16591370	          0.47282597	          0.54303753	          0.61647619	          0.77414777	          0.62971504	          0.32771319	          0.29684160	          0.91317300	          0.25290957	          0.55055954	          0.53691321	          0.58618035	          0.61251976	          0.35720768	          0.53949529	          0.33008106	          0.73800321	
          2.21910161	         -0.38978758	          2.61648676	          1.06621983	          0.52446929	         -8.04252915	        -16.22423085	         21.10538577	        -42.58130842	        -14.67148584	         -4.42597964	         -1.72580155	         -1.72578510	          0.27147783	          0.47993663	          0.57771038	          0.57312462	          0.69241572	          0.64003992	          0.24673199	          0.22319629	          0.94534382	          0.18984863	          0.53759557	          0.48261443	          0.68559075	          0.64921750	          0.31743573	          0.53254542	          0.32433634	          0.74870423	
